<svg width="23" height="25" viewBox="0 0 23 25" fill="none" xmlns="http://www.w3.org/2000/svg">
<path d="M1 19.6667V4.73333C1 3.42667 1 2.77333 1.25433 2.274C1.47803 1.83497 1.83497 1.47803 2.274 1.25433C2.77333 1 3.42667 1 4.73333 1H14.7667C16.0733 1 16.7267 1 17.226 1.25433C17.665 1.47803 18.022 1.83497 18.2457 2.274C18.5 2.77217 18.5 3.4255 18.5 4.73333V7.4645M1 19.6667C1 20.2115 1 20.4833 1.0455 20.7108C1.13575 21.1624 1.35761 21.5772 1.68314 21.9029C2.00867 22.2287 2.42331 22.4508 2.87483 22.5413C3.10233 22.5868 3.37533 22.5868 3.92017 22.5868H7.70833M1 19.6667H6.54167ZM6.20333 8.5845H13.2967C13.6887 8.5845 13.8847 8.5845 14.034 8.50867C14.1662 8.44147 14.2736 8.33403 14.3408 8.20183C14.4167 8.0525 14.4167 7.8565 14.4167 7.4645V6.2045C14.4167 5.8125 14.4167 5.6165 14.3408 5.46717C14.2736 5.33497 14.1662 5.22753 14.034 5.16033C13.8847 5.0845 13.6887 5.0845 13.2967 5.0845H6.20333C5.81133 5.0845 5.61533 5.0845 5.466 5.16033C5.3338 5.22753 5.22636 5.33497 5.15917 5.46717C5.08333 5.6165 5.08333 5.8125 5.08333 6.2045V7.4645C5.08333 7.8565 5.08333 8.0525 5.15917 8.20183C5.22636 8.33403 5.3338 8.44147 5.466 8.50867C5.61533 8.5845 5.81133 8.5845 6.20333 8.5845Z" fill="white"/>
<path d="M1 19.6667V4.73333C1 3.42667 1 2.77333 1.25433 2.274C1.47803 1.83497 1.83497 1.47803 2.274 1.25433C2.77333 1 3.42667 1 4.73333 1H14.7667C16.0733 1 16.7267 1 17.226 1.25433C17.665 1.47803 18.022 1.83497 18.2457 2.274C18.5 2.77217 18.5 3.4255 18.5 4.73333V7.4645M1 19.6667C1 20.2115 1 20.4833 1.0455 20.7108C1.13575 21.1624 1.35761 21.5772 1.68314 21.9029C2.00867 22.2287 2.42331 22.4508 2.87483 22.5413C3.10233 22.5868 3.37533 22.5868 3.92017 22.5868H7.70833M1 19.6667H6.54167M6.20333 8.5845H13.2967C13.6887 8.5845 13.8847 8.5845 14.034 8.50867C14.1662 8.44147 14.2736 8.33403 14.3408 8.20183C14.4167 8.0525 14.4167 7.8565 14.4167 7.4645V6.2045C14.4167 5.8125 14.4167 5.6165 14.3408 5.46717C14.2736 5.33497 14.1662 5.22753 14.034 5.16033C13.8847 5.0845 13.6887 5.0845 13.2967 5.0845H6.20333C5.81133 5.0845 5.61533 5.0845 5.466 5.16033C5.3338 5.22753 5.22636 5.33497 5.15917 5.46717C5.08333 5.6165 5.08333 5.8125 5.08333 6.2045V7.4645C5.08333 7.8565 5.08333 8.0525 5.15917 8.20183C5.22636 8.33403 5.3338 8.44147 5.466 8.50867C5.61533 8.5845 5.81133 8.5845 6.20333 8.5845Z" stroke="white" stroke-width="1.75" stroke-linecap="round" stroke-linejoin="round"/>
<path d="M20.2915 22.3343C19.1975 23.4283 17.7138 24.0428 16.1667 24.0428C14.6196 24.0428 13.1358 23.4283 12.0419 22.3343C10.9479 21.2403 10.3333 19.7566 10.3333 18.2095C10.3333 16.6624 10.9479 15.1787 12.0419 14.0847C13.1358 12.9908 14.6196 12.3762 16.1667 12.3762C17.7138 12.3762 19.1975 12.9908 20.2915 14.0847C21.3854 15.1787 22 16.6624 22 18.2095C22 19.7566 21.3854 21.2403 20.2915 22.3343ZM11.8499 19.0345L12.2624 18.622L11.8499 19.0345C12.0687 19.2533 12.3654 19.3762 12.6748 19.3762H15V21.7013C15 22.0108 15.1229 22.3075 15.3417 22.5263C15.5605 22.7451 15.8572 22.868 16.1667 22.868C16.4761 22.868 16.7728 22.7451 16.9916 22.5263C17.2104 22.3075 17.3333 22.0108 17.3333 21.7013V19.3762H19.6585C19.9679 19.3762 20.2647 19.2533 20.4835 19.0345C20.7023 18.8157 20.8252 18.5189 20.8252 18.2095C20.8252 17.9001 20.7023 17.6033 20.4835 17.3846C20.2647 17.1658 19.9679 17.0428 19.6585 17.0428H17.3333V14.7177C17.3333 14.4083 17.2104 14.1115 16.9916 13.8927L16.5791 14.3052L16.9916 13.8927C16.7728 13.6739 16.4761 13.551 16.1667 13.551C15.8572 13.551 15.5605 13.6739 15.3417 13.8927C15.1229 14.1115 15 14.4083 15 14.7177V17.0428H12.6748C12.3654 17.0428 12.0687 17.1658 11.8499 17.3846C11.6311 17.6033 11.5082 17.9001 11.5082 18.2095C11.5082 18.5189 11.6311 18.8157 11.8499 19.0345Z" fill="white" stroke="white" stroke-width="1.16667"/>
</svg>
