<svg width="25" height="20" viewBox="0 0 25 20" fill="none" xmlns="http://www.w3.org/2000/svg">
<path d="M15.875 6.25H20.25M15.875 9.75H20.25M15.875 13.25H20.25M3.625 18.5H21.125C21.8212 18.5 22.4889 18.2234 22.9812 17.7312C23.4734 17.2389 23.75 16.5712 23.75 15.875V3.625C23.75 2.92881 23.4734 2.26113 22.9812 1.76884C22.4889 1.27656 21.8212 1 21.125 1H3.625C2.92881 1 2.26113 1.27656 1.76884 1.76884C1.27656 2.26113 1 2.92881 1 3.625V15.875C1 16.5712 1.27656 17.2389 1.76884 17.7312C2.26113 18.2234 2.92881 18.5 3.625 18.5ZM10.625 6.6875C10.625 6.97477 10.5684 7.25922 10.4585 7.52462C10.3486 7.79002 10.1874 8.03117 9.9843 8.2343C9.78117 8.43742 9.54002 8.59855 9.27462 8.70849C9.00922 8.81842 8.72477 8.875 8.4375 8.875C8.15023 8.875 7.86578 8.81842 7.60038 8.70849C7.33498 8.59855 7.09383 8.43742 6.8907 8.2343C6.68758 8.03117 6.52645 7.79002 6.41651 7.52462C6.30658 7.25922 6.25 6.97477 6.25 6.6875C6.25 6.10734 6.48047 5.55094 6.8907 5.1407C7.30094 4.73047 7.85734 4.5 8.4375 4.5C9.01766 4.5 9.57406 4.73047 9.9843 5.1407C10.3945 5.55094 10.625 6.10734 10.625 6.6875ZM12.1347 14.0795C10.9967 14.6868 9.72618 15.003 8.43633 15C7.14728 15.0026 5.87759 14.6864 4.74033 14.0795C5.01833 13.3226 5.52193 12.6693 6.18311 12.2078C6.84429 11.7463 7.63118 11.4988 8.4375 11.4988C9.24382 11.4988 10.0307 11.7463 10.6919 12.2078C11.3531 12.6693 11.8567 13.3226 12.1347 14.0795Z" stroke="white" stroke-width="1.75" stroke-linecap="round" stroke-linejoin="round"/>
</svg>
