<svg width="24" height="24" viewBox="0 0 24 24" fill="none" xmlns="http://www.w3.org/2000/svg">
<path d="M9.75 3.04169H22.5833" stroke="white" stroke-width="1.75" stroke-linecap="round" stroke-linejoin="round"/>
<path d="M3.68333 1H2.4C1.6268 1 1 1.6268 1 2.4V3.68333C1 4.45653 1.6268 5.08333 2.4 5.08333H3.68333C4.45653 5.08333 5.08333 4.45653 5.08333 3.68333V2.4C5.08333 1.6268 4.45653 1 3.68333 1Z" stroke="white" stroke-width="1.75" stroke-linecap="round" stroke-linejoin="round"/>
<path d="M9.75 11.7917H22.5833" stroke="white" stroke-width="1.75" stroke-linecap="round" stroke-linejoin="round"/>
<path d="M3.68333 9.75H2.4C1.6268 9.75 1 10.3768 1 11.15V12.4333C1 13.2065 1.6268 13.8333 2.4 13.8333H3.68333C4.45653 13.8333 5.08333 13.2065 5.08333 12.4333V11.15C5.08333 10.3768 4.45653 9.75 3.68333 9.75Z" stroke="white" stroke-width="1.75" stroke-linecap="round" stroke-linejoin="round"/>
<path d="M9.75 20.5417H22.5833" stroke="white" stroke-width="1.75" stroke-linecap="round" stroke-linejoin="round"/>
<path d="M3.68333 18.5H2.4C1.6268 18.5 1 19.1268 1 19.9V21.1833C1 21.9565 1.6268 22.5833 2.4 22.5833H3.68333C4.45653 22.5833 5.08333 21.9565 5.08333 21.1833V19.9C5.08333 19.1268 4.45653 18.5 3.68333 18.5Z" stroke="white" stroke-width="1.75" stroke-linecap="round" stroke-linejoin="round"/>
</svg>
