<svg width="23" height="23" viewBox="0 0 23 23" fill="none" xmlns="http://www.w3.org/2000/svg">
<path d="M18.4784 19.3455C17.6631 18.2663 16.6084 17.3911 15.3973 16.7888C14.1863 16.1865 12.852 15.8736 11.4994 15.8747C10.1469 15.8736 8.81254 16.1865 7.60149 16.7888C6.39045 17.3911 5.33574 18.2663 4.52042 19.3455M18.4784 19.3455C20.0692 17.9305 21.1922 16.0655 21.6986 13.9976C22.205 11.9297 22.0709 9.75676 21.314 7.76688C20.557 5.777 19.2131 4.06423 17.4604 2.8557C15.7077 1.64718 13.629 1 11.5 1C9.37102 1 7.29234 1.64718 5.53962 2.8557C3.78691 4.06423 2.44297 5.777 1.68604 7.76688C0.929115 9.75676 0.794962 11.9297 1.30137 13.9976C1.80779 16.0655 2.92967 17.9305 4.52042 19.3455M18.4784 19.3455C16.5579 21.058 14.0726 22.0029 11.4994 21.9997C8.92587 22.0032 6.44126 21.0583 4.52042 19.3455M14.9994 8.87466C14.9994 9.80291 14.6307 10.6932 13.9743 11.3495C13.3179 12.0059 12.4277 12.3747 11.4994 12.3747C10.5712 12.3747 9.68092 12.0059 9.02454 11.3495C8.36817 10.6932 7.99942 9.80291 7.99942 8.87466C7.99942 7.9464 8.36817 7.05616 9.02454 6.39978C9.68092 5.7434 10.5712 5.37466 11.4994 5.37466C12.4277 5.37466 13.3179 5.7434 13.9743 6.39978C14.6307 7.05616 14.9994 7.9464 14.9994 8.87466Z" stroke="white" stroke-width="1.75" stroke-linecap="round" stroke-linejoin="round"/>
</svg>
