<svg width="25" height="25" viewBox="0 0 25 25" fill="none" xmlns="http://www.w3.org/2000/svg">
<path d="M12.5 18.3333V18.345M2 12.5C2 13.8789 2.27159 15.2443 2.79926 16.5182C3.32694 17.7921 4.10036 18.9496 5.07538 19.9246C6.05039 20.8996 7.20791 21.6731 8.48182 22.2007C9.75574 22.7284 11.1211 23 12.5 23C13.8789 23 15.2443 22.7284 16.5182 22.2007C17.7921 21.6731 18.9496 20.8996 19.9246 19.9246C20.8996 18.9496 21.6731 17.7921 22.2007 16.5182C22.7284 15.2443 23 13.8789 23 12.5C23 11.1211 22.7284 9.75574 22.2007 8.48182C21.6731 7.20791 20.8996 6.05039 19.9246 5.07538C18.9496 4.10036 17.7921 3.32694 16.5182 2.79927C15.2443 2.27159 13.8789 2 12.5 2C11.1211 2 9.75574 2.27159 8.48182 2.79927C7.20791 3.32694 6.05039 4.10036 5.07538 5.07538C4.10036 6.05039 3.32694 7.20791 2.79926 8.48182C2.27159 9.75574 2 11.1211 2 12.5Z" stroke="white" stroke-width="2.33333" stroke-linecap="round" stroke-linejoin="round"/>
<path d="M12.3333 14.6166C12.3119 14.2378 12.414 13.8624 12.6244 13.5467C12.8349 13.2311 13.1421 12.9924 13.5 12.8666C13.9385 12.6989 14.3321 12.4317 14.6498 12.086C14.9675 11.7404 15.2007 11.3257 15.3309 10.8746C15.4611 10.4235 15.4848 9.94838 15.4002 9.48658C15.3156 9.02478 15.1249 8.58892 14.8432 8.21333C14.5615 7.83774 14.1965 7.53267 13.7768 7.32212C13.3572 7.11158 12.8944 7.00131 12.4249 7.00001C11.9555 6.99871 11.4921 7.1064 11.0713 7.31462C10.6505 7.52283 10.2838 7.82588 10 8.1999" stroke="white" stroke-width="2.33333" stroke-linecap="round" stroke-linejoin="round"/>
</svg>
