<svg width="26" height="25" viewBox="0 0 26 25" fill="none" xmlns="http://www.w3.org/2000/svg">
<path d="M11.8957 22.9113C11.5618 22.8126 11.2606 22.6262 11.0232 22.3716C10.7858 22.117 10.621 21.8034 10.5458 21.4635C10.4713 21.1557 10.3251 20.8699 10.1192 20.6293C9.91327 20.3887 9.65346 20.2002 9.36091 20.079C9.06835 19.9578 8.75131 19.9073 8.43558 19.9318C8.11986 19.9563 7.81438 20.055 7.544 20.2198C5.74383 21.3165 3.68233 19.2562 4.779 17.4548C4.94362 17.1846 5.04214 16.8793 5.06656 16.5638C5.09099 16.2483 5.04062 15.9314 4.91955 15.6391C4.79848 15.3467 4.61014 15.087 4.36982 14.8811C4.1295 14.6752 3.84399 14.5289 3.5365 14.4542C1.48783 13.9572 1.48783 11.0428 3.5365 10.5458C3.84427 10.4713 4.13008 10.3251 4.37067 10.1192C4.61126 9.91327 4.79983 9.65346 4.92104 9.36091C5.04224 9.06835 5.09266 8.75131 5.06818 8.43558C5.0437 8.11986 4.94502 7.81438 4.78017 7.544C3.6835 5.74383 5.74383 3.68233 7.54517 4.779C8.71183 5.48833 10.2238 4.86067 10.5458 3.5365C11.0428 1.48783 13.9572 1.48783 14.4542 3.5365C14.5287 3.84427 14.6749 4.13008 14.8808 4.37067C15.0867 4.61126 15.3465 4.79983 15.6391 4.92104C15.9317 5.04224 16.2487 5.09266 16.5644 5.06818C16.8801 5.0437 17.1856 4.94502 17.456 4.78017C19.2562 3.6835 21.3177 5.74383 20.221 7.54517C20.0564 7.81543 19.9579 8.12073 19.9334 8.43624C19.909 8.75174 19.9594 9.06856 20.0804 9.36094C20.2015 9.65332 20.3899 9.91301 20.6302 10.1189C20.8705 10.3248 21.156 10.4711 21.4635 10.5458C22.9942 10.9168 23.3815 12.6388 22.6243 13.6923" stroke="white" stroke-width="2.33333" stroke-linecap="round" stroke-linejoin="round"/>
<path d="M21.8333 23L24.1667 20.6667L21.8333 18.3333M18.3333 18.3333L16 20.6667L18.3333 23M9 12.5C9 13.4283 9.36875 14.3185 10.0251 14.9749C10.6815 15.6313 11.5717 16 12.5 16C13.4283 16 14.3185 15.6313 14.9749 14.9749C15.6313 14.3185 16 13.4283 16 12.5C16 11.5717 15.6313 10.6815 14.9749 10.0251C14.3185 9.36875 13.4283 9 12.5 9C11.5717 9 10.6815 9.36875 10.0251 10.0251C9.36875 10.6815 9 11.5717 9 12.5Z" stroke="white" stroke-width="2.33333" stroke-linecap="round" stroke-linejoin="round"/>
</svg>
